<?xml version="1.0" standalone="no"?>
<!DOCTYPE svg PUBLIC "-//W3C//DTD SVG 20010904//EN"
 "http://www.w3.org/TR/2001/REC-SVG-20010904/DTD/svg10.dtd">
<svg version="1.0" xmlns="http://www.w3.org/2000/svg"
 width="200.000000pt" height="200.000000pt" viewBox="0 0 200.000000 200.000000"
 preserveAspectRatio="xMidYMid meet">

<g transform="translate(0.000000,200.000000) scale(0.100000,-0.100000)"
fill="#000000" stroke="none">
<path d="M1391 1755 c-62 -15 -63 -16 -84 -72 -17 -44 -14 -61 4 -20 8 19 9
18 4 -8 -4 -16 -7 -38 -8 -48 -1 -11 -7 -15 -16 -12 -11 4 -10 0 4 -15 19 -21
30 -27 20 -10 -3 6 -3 16 1 22 5 7 9 33 10 58 3 76 11 90 49 89 18 0 18 -1 -2
-9 -13 -5 -23 -12 -23 -15 0 -4 5 -3 11 1 8 4 9 -1 5 -17 -3 -13 -3 -18 0 -11
3 6 12 12 20 12 9 0 12 5 9 10 -4 7 3 9 22 5 l28 -6 -25 22 -25 22 38 -7 c26
-5 37 -3 37 5 0 7 2 10 5 7 9 -8 -6 -38 -16 -32 -17 10 -9 -5 16 -32 25 -27
26 -27 40 -8 8 10 15 14 15 7 0 -6 -4 -14 -9 -17 -5 -4 -8 -22 -7 -41 2 -19 0
-32 -5 -30 -4 3 -9 -5 -11 -17 -2 -17 -14 -25 -51 -34 -45 -11 -48 -11 -66 12
-16 21 -20 22 -31 9 -11 -13 -10 -14 6 -8 18 7 18 6 2 -19 -16 -24 -16 -27 2
-45 18 -20 21 -20 93 -6 l74 15 26 72 25 72 -50 57 c-53 61 -55 62 -137 42z
m117 -50 c-3 -3 -9 2 -12 12 -6 14 -5 15 5 6 7 -7 10 -15 7 -18z m-105 -179
l25 -23 -26 -1 c-37 0 -56 16 -41 34 14 18 12 18 42 -10z m32 4 c-3 -5 -12
-10 -18 -10 -7 0 -6 4 3 10 19 12 23 12 15 0z m35 -5 c0 -8 -7 -15 -15 -15 -9
0 -12 6 -9 15 4 8 10 15 15 15 5 0 9 -7 9 -15z"/>
<path d="M1115 1710 c-4 -6 1 -7 11 -3 13 5 16 2 12 -8 -4 -10 1 -15 13 -15
17 0 17 2 2 18 -18 20 -29 23 -38 8z"/>
<path d="M1016 1684 c-5 -14 -4 -15 9 -4 17 14 19 20 6 20 -5 0 -12 -7 -15
-16z"/>
<path d="M1170 1662 c0 -4 10 -13 23 -21 22 -14 22 -14 3 8 -20 22 -26 25 -26
13z"/>
<path d="M1694 1603 c-4 -14 -2 -33 3 -42 12 -19 51 -27 64 -14 6 6 -2 8 -20
5 -26 -4 -31 0 -37 23 -8 32 5 48 37 43 15 -2 26 -12 30 -28 6 -21 7 -22 8 -4
1 27 -18 44 -51 44 -22 0 -29 -6 -34 -27z"/>
<path d="M991 1604 c0 -11 11 -31 27 -45 l27 -24 -22 25 c-11 14 -23 34 -26
45 -5 19 -5 19 -6 -1z"/>
<path d="M1336 1593 c-6 -14 -5 -15 5 -6 7 7 10 15 7 18 -3 3 -9 -2 -12 -12z"/>
<path d="M1137 1536 c-4 -10 0 -12 14 -9 10 3 16 9 13 14 -8 13 -21 11 -27 -5z"/>
<path d="M1084 1391 c0 -10 7 -18 15 -17 8 1 21 -11 29 -26 7 -16 18 -28 25
-27 9 0 9 2 0 6 -7 2 -13 10 -13 17 0 7 -13 24 -28 39 -24 23 -28 24 -28 8z"/>
<path d="M1436 1375 c17 -13 16 -14 -15 -3 -25 8 -39 8 -52 0 -10 -7 -26 -9
-36 -5 -15 6 -16 4 -6 -8 7 -8 10 -26 7 -40 -4 -21 -3 -20 8 5 11 23 21 29 54
32 35 3 45 -1 73 -30 28 -29 31 -37 22 -55 -7 -12 -10 -33 -9 -47 2 -16 -2
-28 -10 -30 -7 -1 -8 0 -2 3 5 2 10 9 10 14 0 6 -8 6 -19 -1 -11 -5 -29 -10
-40 -10 -12 0 -21 -7 -21 -15 0 -9 -9 -15 -22 -15 -17 0 -19 3 -10 9 10 6 9
10 -7 14 -12 3 -21 11 -21 19 0 10 2 10 10 -2 5 -8 11 -12 14 -9 3 3 -10 21
-29 40 -24 25 -31 39 -24 50 5 8 8 21 8 29 0 8 -5 4 -10 -10 -18 -43 -19 -62
-4 -84 8 -11 15 -15 15 -9 0 7 -4 15 -10 18 -5 3 -10 11 -10 17 0 6 9 3 19 -6
11 -10 17 -24 14 -31 -2 -8 4 -24 15 -35 18 -20 24 -21 78 -11 32 6 59 11 60
11 1 0 11 27 22 59 20 58 20 61 2 81 -13 15 -19 17 -23 8 -3 -7 -6 -4 -6 8 -1
23 -30 54 -51 54 -9 0 -7 -5 6 -15z m11 -191 c-3 -3 -12 -4 -19 -1 -8 3 -5 6
6 6 11 1 17 -2 13 -5z"/>
<path d="M1765 1281 c-22 -5 -33 -15 -43 -43 -13 -35 -13 -39 9 -67 39 -49
108 -37 126 22 9 31 8 38 -14 66 -25 32 -28 33 -78 22z m64 -25 c19 -20 21
-29 14 -57 -7 -26 -16 -35 -43 -42 -30 -8 -37 -6 -56 17 -20 22 -21 30 -12 60
8 26 18 36 37 39 14 2 29 5 32 6 3 0 16 -10 28 -23z"/>
<path d="M1111 1201 c-8 -5 -9 -11 -3 -15 5 -3 12 1 16 9 6 17 6 18 -13 6z"/>
<path d="M1078 1173 c7 -3 16 -2 19 1 4 3 -2 6 -13 5 -11 0 -14 -3 -6 -6z"/>
<path d="M1110 1126 c0 -2 8 -10 18 -17 15 -13 16 -12 3 4 -13 16 -21 21 -21
13z"/>
<path d="M1733 1027 c-51 -10 -52 -11 -72 -66 -18 -48 -18 -57 -6 -71 8 -8 25
-28 38 -43 22 -29 23 -29 81 -18 33 6 60 12 61 13 0 2 8 27 18 57 l16 55 -37
42 c-20 23 -39 42 -42 42 -3 -1 -28 -6 -57 -11z m81 -47 c25 -29 26 -33 14
-71 -8 -27 -20 -44 -36 -50 -35 -13 -68 -11 -82 6 -7 8 -16 12 -21 9 -5 -3 -9
-2 -8 3 1 4 -1 15 -5 23 -11 27 18 94 45 101 46 13 66 9 93 -21z"/>
<path d="M1365 1019 c4 -6 13 -8 20 -5 8 3 18 -1 24 -8 8 -10 3 -11 -22 -8
-17 2 -37 8 -43 13 -8 7 -84 -6 -84 -14 0 -1 29 -2 65 -3 35 0 71 -6 79 -13
17 -14 10 -51 -10 -51 -8 0 -14 -10 -14 -25 0 -14 5 -25 11 -25 6 0 8 -7 5
-16 -4 -9 0 -21 9 -28 24 -18 1 -40 -42 -39 -36 0 -37 0 -10 -9 22 -8 35 -5
63 12 39 23 58 19 32 -6 -9 -10 -35 -16 -66 -17 -33 -1 -45 -5 -36 -10 9 -5
37 -6 64 -2 l49 7 27 74 27 75 -28 29 c-16 17 -34 26 -44 23 -13 -4 -13 -3 -2
5 11 8 9 14 -8 31 -21 21 -78 30 -66 10z m97 -81 c-2 -10 -8 -20 -12 -23 -5
-3 -6 5 -2 17 4 16 2 19 -8 13 -8 -5 -11 -4 -7 2 11 18 35 11 29 -9z"/>
<path d="M1286 981 c-3 -4 6 -6 19 -3 14 2 25 6 25 8 0 8 -39 4 -44 -5z"/>
<path d="M1340 970 c-12 -8 -10 -9 7 -7 12 2 26 6 29 10 11 11 -19 8 -36 -3z"/>
<path d="M1262 940 c0 -8 4 -26 8 -40 6 -20 8 -21 8 -5 0 11 -3 29 -8 40 -5
12 -8 14 -8 5z"/>
<path d="M1340 928 c0 -4 7 -8 15 -8 8 0 15 4 15 8 0 5 -7 9 -15 9 -8 0 -15
-4 -15 -9z"/>
<path d="M1332 864 c-16 -17 -15 -23 3 -20 24 3 39 22 23 28 -7 3 -19 -1 -26
-8z"/>
<path d="M1078 863 c6 -2 18 -2 25 0 6 3 1 5 -13 5 -14 0 -19 -2 -12 -5z"/>
<path d="M1229 842 c27 -39 49 -56 74 -58 18 -2 17 -1 -5 9 -27 13 -68 53 -68
69 0 4 -5 8 -11 8 -6 0 -1 -13 10 -28z"/>
<path d="M1300 759 c0 -5 9 -9 20 -9 11 0 20 2 20 4 0 2 -9 6 -20 9 -11 3 -20
1 -20 -4z"/>
<path d="M1310 724 c0 -15 32 -35 47 -30 10 3 25 1 33 -4 11 -7 5 -10 -22 -10
-21 0 -38 -5 -38 -10 0 -6 16 -9 38 -6 20 2 28 1 17 -1 -11 -3 -24 -9 -30 -15
-7 -8 -6 -9 3 -4 32 19 58 -54 30 -83 -11 -10 -10 -12 1 -9 21 4 25 -30 6 -52
-15 -16 -15 -19 1 -35 14 -13 27 -15 62 -10 67 10 68 11 96 86 l26 69 -23 26
c-12 15 -35 42 -52 60 l-30 33 -65 -14 c-57 -12 -66 -12 -76 0 -11 15 -24 20
-24 9z m147 -34 c3 -11 9 -20 14 -20 5 0 9 -6 9 -12 -1 -7 -9 -3 -19 10 -11
12 -24 22 -30 22 -6 0 -11 5 -11 10 0 19 32 10 37 -10z m43 -12 c15 -21 17
-28 6 -19 -16 13 -41 51 -33 51 2 0 14 -15 27 -32z m38 -133 c-3 -3 -9 2 -12
12 -6 14 -5 15 5 6 7 -7 10 -15 7 -18z m-58 -69 c0 -2 -9 -6 -20 -9 -11 -3
-18 -1 -14 4 5 9 34 13 34 5z"/>
<path d="M1250 716 c0 -9 40 -13 46 -5 3 5 -6 9 -20 9 -14 0 -26 -2 -26 -4z"/>
<path d="M1188 703 c-10 -2 -18 -9 -18 -14 0 -6 5 -7 11 -4 6 4 23 11 37 15
19 6 21 8 7 8 -11 0 -28 -2 -37 -5z"/>
<path d="M1106 685 c-9 -26 -7 -32 5 -12 6 10 9 21 6 23 -2 3 -7 -2 -11 -11z"/>
<path d="M1298 683 c7 -3 16 -2 19 1 4 3 -2 6 -13 5 -11 0 -14 -3 -6 -6z"/>
<path d="M1083 614 c0 -17 2 -22 7 -13 5 6 6 18 3 26 -8 19 -10 16 -10 -13z"/>
<path d="M1703 612 l-71 -16 -21 -61 c-26 -75 -26 -96 -3 -116 9 -9 24 -26 32
-37 8 -12 20 -22 26 -22 15 0 103 96 146 157 l30 45 -33 33 -34 32 -72 -15z"/>
<path d="M1137 595 c-4 -8 -2 -15 3 -15 6 0 10 -7 10 -16 0 -11 -5 -14 -17
-10 -15 6 -15 4 2 -14 10 -11 19 -20 20 -20 4 0 -3 81 -7 86 -3 3 -8 -2 -11
-11z"/>
<path d="M1036 507 c3 -10 9 -15 12 -12 3 3 0 11 -7 18 -10 9 -11 8 -5 -6z"/>
<path d="M1156 495 c-11 -8 -15 -15 -9 -15 6 0 16 7 23 15 16 19 11 19 -14 0z"/>
<path d="M1320 469 c-12 -8 -10 -9 8 -4 14 4 28 1 38 -9 8 -9 21 -16 27 -16 7
1 1 10 -12 20 -26 22 -39 24 -61 9z"/>
<path d="M1300 435 c7 -9 15 -13 17 -11 7 7 -7 26 -19 26 -6 0 -6 -6 2 -15z"/>
<path d="M1340 410 c8 -5 23 -7 33 -4 9 3 17 1 17 -5 0 -6 -7 -11 -16 -11 -9
0 -14 -5 -12 -11 2 -6 7 -9 12 -7 4 2 14 -8 21 -22 18 -32 20 -100 3 -100 -9
0 -8 -4 2 -10 13 -8 12 -10 -2 -10 -10 0 -18 -4 -18 -10 0 -5 5 -10 11 -10 5
0 7 -4 4 -10 -3 -6 -11 -10 -16 -10 -6 0 -7 4 -4 10 3 5 2 10 -4 10 -6 0 -8 7
-5 15 4 8 1 15 -6 15 -6 0 -9 -4 -6 -9 4 -5 0 -12 -6 -14 -10 -4 -10 -6 0 -6
6 -1 12 -6 12 -12 0 -6 -12 -8 -32 -5 l-33 6 35 -14 c30 -11 40 -11 70 2 66
27 115 55 179 99 l63 46 -45 45 -46 45 -71 -13 c-54 -10 -73 -11 -82 -2 -7 7
-26 12 -42 12 -24 0 -27 -3 -16 -10z"/>
<path d="M1066 385 c-9 -26 -7 -32 5 -12 6 10 9 21 6 23 -2 3 -7 -2 -11 -11z"/>
<path d="M1080 307 c0 -2 16 -18 35 -36 19 -17 35 -27 35 -22 0 5 -16 21 -35
35 -19 15 -35 25 -35 23z"/>
<path d="M1210 231 c0 -5 7 -15 17 -22 15 -13 15 -12 4 9 -12 23 -21 28 -21
13z"/>
<path d="M1266 195 c4 -8 11 -15 16 -15 6 0 5 6 -2 15 -7 8 -14 15 -16 15 -2
0 -1 -7 2 -15z"/>
<path d="M1285 160 c-13 -5 -14 -9 -5 -9 8 0 24 4 35 9 13 5 14 9 5 9 -8 0
-24 -4 -35 -9z"/>
<path d="M1185 140 c-13 -6 -15 -9 -5 -9 8 0 22 4 30 9 18 12 2 12 -25 0z"/>
<path d="M1048 123 c7 -3 16 -2 19 1 4 3 -2 6 -13 5 -11 0 -14 -3 -6 -6z"/>
</g>
</svg>
