<?xml version="1.0" standalone="no"?>
<!DOCTYPE svg PUBLIC "-//W3C//DTD SVG 20010904//EN"
 "http://www.w3.org/TR/2001/REC-SVG-20010904/DTD/svg10.dtd">
<svg version="1.0" xmlns="http://www.w3.org/2000/svg"
 width="450.000000pt" height="450.000000pt" viewBox="0 0 450.000000 450.000000"
 preserveAspectRatio="xMidYMid meet">

<g transform="translate(0.000000,450.000000) scale(0.100000,-0.100000)"
fill="#000000" stroke="none">
<path d="M3280 3045 l0 -285 90 0 90 0 0 285 0 285 -90 0 -90 0 0 -285z"/>
<path d="M3942 2967 l-252 -252 68 -68 67 -67 255 255 255 255 -65 65 c-35 36
-67 65 -70 65 -3 0 -119 -114 -258 -253z"/>
<path d="M439 2807 c-228 -42 -412 -251 -434 -491 -24 -262 142 -506 394 -580
67 -20 217 -21 287 -2 166 44 310 180 370 348 l13 38 -109 0 c-109 0 -110 0
-124 -27 -22 -43 -92 -111 -137 -133 -174 -89 -398 -1 -468 185 -31 82 -26
197 11 270 120 234 435 259 578 47 l34 -52 108 0 c59 0 108 1 108 3 0 8 -39
98 -57 133 -31 57 -114 146 -173 184 -109 70 -270 101 -401 77z"/>
<path d="M1180 2270 l0 -550 105 0 105 0 0 550 0 550 -105 0 -105 0 0 -550z"/>
<path d="M3260 2599 c-78 -13 -154 -55 -223 -122 -219 -216 -152 -587 130
-719 54 -25 84 -33 150 -36 137 -7 238 31 334 127 90 91 129 184 129 313 0
222 -152 403 -367 438 -66 11 -77 11 -153 -1z m187 -224 c57 -29 96 -74 118
-136 19 -53 19 -94 0 -150 -34 -99 -116 -159 -218 -159 -101 0 -170 44 -213
135 -95 200 116 408 313 310z"/>
<path d="M1750 2586 c-69 -20 -105 -41 -144 -88 -35 -41 -66 -118 -66 -165 0
-23 2 -23 105 -23 100 0 105 1 105 21 0 31 60 86 102 94 43 8 142 -11 158 -30
7 -8 14 -31 17 -52 8 -59 -13 -72 -171 -99 -250 -44 -323 -103 -334 -270 -4
-61 -1 -80 21 -126 26 -58 69 -97 126 -117 85 -28 270 -1 334 49 34 27 37 26
37 -20 l0 -40 106 0 106 0 -4 343 -3 342 -27 55 c-47 95 -130 132 -308 136
-73 2 -131 -2 -160 -10z m263 -607 c-13 -39 -27 -60 -52 -76 -73 -49 -163 -52
-208 -7 -18 18 -23 34 -23 71 0 83 31 109 165 138 44 9 91 23 105 30 l25 13 3
-57 c2 -36 -4 -78 -15 -112z"/>
<path d="M2761 2578 c-44 -15 -79 -36 -117 -71 l-54 -49 0 51 0 51 -100 0
-100 0 0 -420 0 -420 104 0 105 0 3 258 c3 283 4 286 70 349 44 42 96 63 158
63 l50 0 0 105 0 105 -27 0 c-16 -1 -57 -10 -92 -22z"/>
<path d="M3930 2245 l0 -95 285 0 285 0 0 95 0 95 -285 0 -285 0 0 -95z"/>
</g>
</svg>
